<svg xmlns="http://www.w3.org/2000/svg" width="256" height="256" viewBox="0 0 256 256">
  <defs>
    <linearGradient id="g" x1="24" y1="24" x2="232" y2="232" gradientUnits="userSpaceOnUse">
      <stop stop-color="#8B5CF6"/>
      <stop offset="1" stop-color="#06B6D4"/>
    </linearGradient>
    <filter id="s" x="-20%" y="-20%" width="140%" height="140%">
      <feDropShadow dx="0" dy="10" stdDeviation="10" flood-opacity=".22"/>
    </filter>
  </defs>
  <rect x="28" y="28" width="200" height="200" rx="44" fill="url(#g)" filter="url(#s)"/>
  <path d="M79 82h99c9 0 16 7 16 16s-7 16-16 16H79c-9 0-16-7-16-16s7-16 16-16z" fill="white" opacity=".95"/>
  <path d="M79 122h62c9 0 16 7 16 16s-7 16-16 16H79c-9 0-16-7-16-16s7-16 16-16z" fill="white" opacity=".82"/>
  <path d="M79 162h99c9 0 16 7 16 16s-7 16-16 16H79c-9 0-16-7-16-16s7-16 16-16z" fill="white" opacity=".95"/>
  <path d="M180 125l8 17 19 2-14 13 4 19-17-9-17 9 4-19-14-13 19-2 8-17z" fill="#111827" opacity=".82"/>
</svg>
